<svg width="146px" height="23px" viewBox="0 0 146 23" version="1.1" xmlns="http://www.w3.org/2000/svg" xmlns:xlink="http://www.w3.org/1999/xlink">
    <title>ref-logo</title>
    <g id="Symbols" stroke="none" stroke-width="1" fill="none" fill-rule="evenodd">
        <g id="Reference-logo">
            <path d="M19.3582307,22.6973684 L18.7485226,22.8486842 L17.5291065,22.8486842 C16.3909791,22.8486842 15.4662645,22.7175452 14.7549349,22.4552632 C14.0436052,22.1929811 13.3627714,21.7188631 12.7124129,21.0328947 L12.7124129,20.5789474 C12.7124129,17.8148985 12.3415109,15.7872872 11.5996957,14.4960526 C10.8578805,13.2048181 9.68420426,12.5592105 8.07863169,12.5592105 L6.15805133,12.5592105 L6.00562431,12.7105263 L6.00562431,21.0328947 L6.31047834,21.6381579 L7.22504042,21.9407895 L8.1700879,21.9407895 L8.32251491,22.0921053 L8.32251491,22.5460526 L8.1700879,22.6973684 L6.70678857,22.6973684 L4.26795636,22.5460526 L1.82912416,22.6973684 L0.152427013,22.6973684 L0,22.5460526 L0,22.0921053 L0.152427013,21.9407895 L1.31087231,21.9407895 L2.22543439,21.6381579 L2.53028842,20.7302632 L2.53028842,3.48026316 L2.22543439,2.57236842 L1.31087231,2.26973684 L0.152427013,2.26973684 L0,2.11842105 L0,1.66447368 L0.152427013,1.51315789 L1.82912416,1.51315789 L4.26795636,1.66447368 L7.92620468,1.51315789 L9.45047481,1.51315789 C10.5682785,1.51315789 11.5844484,1.63420932 12.4990151,1.87631579 C13.4135817,2.11842226 14.2011134,2.4664451 14.8616338,2.92039474 C15.5221541,3.37434438 16.0302391,3.91907577 16.3859039,4.55460526 C16.7415687,5.19013476 16.9193984,5.89122424 16.9193984,6.65789474 C16.9193984,7.26316092 16.7923772,7.84319898 16.5383309,8.39802632 C16.2842846,8.95285365 15.9184634,9.46732219 15.4408564,9.94144737 C14.9632494,10.4155725 14.3941942,10.8291649 13.7336739,11.1822368 C13.0731535,11.5353088 12.3262686,11.8228059 11.4929968,12.0447368 C13.0782456,12.4078966 14.2976496,13.1342051 15.1512451,14.2236842 L16.6755152,20.2763158 L17.2242525,21.3355263 L18.4436686,21.9407895 L19.5106577,21.9407895 L19.6630847,22.0921053 L19.6630847,22.3947368 L19.3582307,22.6973684 Z M13.2001793,6.9 C13.2001793,6.2342072 13.0934815,5.62390628 12.8800826,5.06907895 C12.6666837,4.51425161 12.3618327,4.04013355 11.9655205,3.64671053 C11.5692083,3.25328751 11.0916084,2.95065895 10.5327066,2.73881579 C9.97380476,2.52697263 9.35902195,2.42105263 8.68833974,2.42105263 L7.22504042,2.42105263 L6.31047834,2.72368421 L6.00562431,3.32894737 L6.00562431,11.5 L6.15805133,11.6513158 L8.53591273,11.6513158 C10.0601905,11.6513158 11.2186242,11.2478111 12.0112486,10.4407895 C12.8038731,9.63376789 13.2001793,8.45351654 13.2001793,6.9 L13.2001793,6.9 Z M32.9583067,14.6776316 L23.3858903,14.6776316 L23.2334633,14.9802632 L23.2334633,15.8881579 C23.2334633,17.724132 23.6196079,19.1565738 24.3919086,20.1855263 C25.1642093,21.2144788 26.221026,21.7289474 27.5623905,21.7289474 C28.6598705,21.7289474 29.5896659,21.3859683 30.3518048,20.7 C31.1139437,20.0140317 31.6271095,19.0456203 31.8913176,17.7947368 L32.1352009,17.5526316 L32.3790841,17.5526316 C32.5619974,17.5526316 32.7195038,17.6333325 32.8516078,17.7947368 C32.9837119,17.9561412 33.0497629,18.1780688 33.0497629,18.4605263 C32.907497,19.1464947 32.6534545,19.7668832 32.2876279,20.3217105 C31.9218012,20.8765379 31.4797673,21.3506559 30.9615129,21.7440789 C30.4432584,22.137502 29.8538799,22.4451743 29.1933595,22.6671053 C28.5328392,22.8890362 27.8367628,23 27.1051094,23 C24.808531,23 23.014991,22.3594362 21.7244359,21.0782895 C20.4338807,19.7971427 19.7886128,18.0166781 19.7886128,15.7368421 L19.7886128,15.4342105 C19.7886128,14.3447314 19.9715234,13.3359696 20.3373501,12.4078947 C20.7031767,11.4798199 21.2061808,10.6778543 21.8463775,10.0019737 C22.4865741,9.32609311 23.2588633,8.80153695 24.1632681,8.42828947 C25.0676729,8.05504199 26.0482769,7.86842105 27.1051094,7.86842105 C27.9790287,7.86842105 28.7767221,8.02982295 29.4982135,8.35263158 C30.219705,8.67544021 30.8446495,9.12938304 31.3730658,9.71447368 C31.9014821,10.2995643 32.3181118,11.0006538 32.6229673,11.8177632 C32.9278229,12.6348725 33.09041,13.5377144 33.1107337,14.5263158 L32.9583067,14.6776316 Z M29.7573395,13.4671053 C29.7573395,11.9539398 29.4931353,10.7938637 28.964719,9.98684211 C28.4363027,9.17982053 27.7148221,8.77631579 26.8002554,8.77631579 C25.8856888,8.77631579 25.1133996,9.21008338 24.4833648,10.0776316 C23.85333,10.9451798 23.4570237,12.1758692 23.2944341,13.7697368 L29.4524854,13.7697368 L29.7573395,13.4671053 Z M46.2230434,2.875 C46.2230434,3.27851079 46.0553753,3.64670886 45.7200342,3.97960526 C45.3846931,4.31250166 45.0137911,4.47894737 44.607317,4.47894737 C44.1398719,4.47894737 43.7689698,4.34276452 43.4945998,4.07039474 C43.2202299,3.79802495 43.0830469,3.42982688 43.0830469,2.96578947 L43.0830469,2.875 L44.2110068,1.75526316 C43.784209,1.14999697 43.2049922,0.847368421 42.4733389,0.847368421 C41.7823329,0.847368421 41.2285203,1.09955888 40.8118844,1.60394737 C40.3952485,2.10833586 40.1869337,2.78420629 40.1869337,3.63157895 L40.1869337,8.01973684 L40.3393607,8.17105263 L43.540328,8.17105263 L43.692755,8.32236842 L43.692755,9.07894737 L43.540328,9.23026316 L40.3393607,9.23026316 L40.1869337,9.38157895 L40.1869337,21.0328947 L40.4917877,21.6381579 L41.4063498,21.9407895 L42.6257659,21.9407895 L42.7781929,22.0921053 L42.7781929,22.5460526 L42.6257659,22.6973684 L40.9490687,22.6973684 L38.6016927,22.5460526 L36.2238313,22.6973684 L34.8519882,22.6973684 L34.6995612,22.5460526 L34.6995612,22.0921053 L34.8519882,21.9407895 L35.7665503,21.9407895 L36.6811124,21.6381579 L36.9859664,21.0328947 L36.9859664,9.38157895 L36.8335394,9.23026316 L34.6995612,9.23026316 L34.5471342,9.07894737 L34.5471342,8.625 L34.6995612,8.47368421 L36.6811124,8.17105263 L36.9859664,7.86842105 L36.9859664,4.53947368 C37.148556,3.85350534 37.3975176,3.23311681 37.7328588,2.67828947 C38.0681999,2.12346214 38.4746678,1.64934407 38.9522749,1.25592105 C39.4298819,0.862498033 39.9532094,0.554825671 40.5222731,0.332894737 C41.0913368,0.110963803 41.690877,0 42.3209118,0 L42.4733389,0 C43.5504951,0 44.4447247,0.267321888 45.1560543,0.801973684 C45.8673839,1.33662548 46.2230434,2.02762734 46.2230434,2.875 L46.2230434,2.875 Z M57.5976851,14.6776316 L48.0252686,14.6776316 L47.8728416,14.9802632 L47.8728416,15.8881579 C47.8728416,17.724132 48.2589862,19.1565738 49.0312869,20.1855263 C49.8035877,21.2144788 50.8604044,21.7289474 52.2017688,21.7289474 C53.2992488,21.7289474 54.2290443,21.3859683 54.9911831,20.7 C55.753322,20.0140317 56.2664878,19.0456203 56.530696,17.7947368 L56.7745792,17.5526316 L57.0184624,17.5526316 C57.2013757,17.5526316 57.3588821,17.6333325 57.4909862,17.7947368 C57.6230902,17.9561412 57.6891413,18.1780688 57.6891413,18.4605263 C57.5468754,19.1464947 57.2928329,19.7668832 56.9270062,20.3217105 C56.5611795,20.8765379 56.1191456,21.3506559 55.6008912,21.7440789 C55.0826368,22.137502 54.4932582,22.4451743 53.8327378,22.6671053 C53.1722175,22.8890362 52.4761411,23 51.7444878,23 C49.4479093,23 47.6543694,22.3594362 46.3638142,21.0782895 C45.073259,19.7971427 44.4279911,18.0166781 44.4279911,15.7368421 L44.4279911,15.4342105 C44.4279911,14.3447314 44.6109017,13.3359696 44.9767284,12.4078947 C45.342555,11.4798199 45.8455592,10.6778543 46.4857558,10.0019737 C47.1259525,9.32609311 47.8982416,8.80153695 48.8026464,8.42828947 C49.7070512,8.05504199 50.6876552,7.86842105 51.7444878,7.86842105 C52.618407,7.86842105 53.4161004,8.02982295 54.1375919,8.35263158 C54.8590833,8.67544021 55.4840278,9.12938304 56.0124441,9.71447368 C56.5408604,10.2995643 56.9574901,11.0006538 57.2623456,11.8177632 C57.5672012,12.6348725 57.7297884,13.5377144 57.7501121,14.5263158 L57.5976851,14.6776316 Z M54.3967178,13.4671053 C54.3967178,11.9539398 54.1325136,10.7938637 53.6040973,9.98684211 C53.075681,9.17982053 52.3542004,8.77631579 51.4396337,8.77631579 C50.5250671,8.77631579 49.7527779,9.21008338 49.1227431,10.0776316 C48.4927083,10.9451798 48.0964021,12.1758692 47.9338124,13.7697368 L54.0918638,13.7697368 L54.3967178,13.4671053 Z M71.1672757,10.4407895 C71.1672757,11.1267578 70.9691226,11.6866206 70.5728104,12.1203947 C70.1764982,12.5541688 69.7039792,12.7710526 69.1552392,12.7710526 C68.7894125,12.7710526 68.469319,12.6500012 68.194949,12.4078947 C67.920579,12.1657883 67.7325876,11.8429845 67.630969,11.4394737 L67.630969,11.2881579 L68.7894143,10.1381579 C68.7894143,9.87587588 68.697959,9.65899209 68.5150457,9.4875 C68.3321324,9.31600791 68.0984133,9.23026316 67.8138815,9.23026316 C67.2041704,9.23026316 66.640196,9.66403075 66.1219416,10.5315789 C65.6036872,11.3991271 65.171815,12.6298166 64.826312,14.2236842 L64.826312,21.0328947 L65.131166,21.6381579 L66.0457281,21.9407895 L67.2651442,21.9407895 L67.4175712,22.0921053 L67.4175712,22.5460526 L67.2651442,22.6973684 L65.4969909,22.6973684 L63.2410711,22.5460526 L60.9241805,22.6973684 L59.4913665,22.6973684 L59.3389395,22.5460526 L59.3389395,22.0921053 L59.4913665,21.9407895 L60.4059286,21.9407895 L61.3204907,21.6381579 L61.6253447,21.0328947 L61.6253447,10.1381579 L61.3204907,9.23026316 L60.4059286,8.92763158 L59.6437936,8.92763158 L59.4913665,8.77631579 L59.4913665,8.32236842 L59.6437936,8.17105263 L64.369031,8.17105263 L64.521458,8.32236842 L64.521458,12.2565789 C64.8263135,10.8846423 65.3343985,9.8103109 66.0457281,9.03355263 C66.7570577,8.25679436 67.5699937,7.86842105 68.4845603,7.86842105 C69.2771847,7.86842105 69.9224526,8.10548009 70.4203834,8.57960526 C70.9183141,9.05373044 71.1672757,9.67411897 71.1672757,10.4407895 L71.1672757,10.4407895 Z M84.5234686,14.6776316 L74.9510522,14.6776316 L74.7986252,14.9802632 L74.7986252,15.8881579 C74.7986252,17.724132 75.1847697,19.1565738 75.9570705,20.1855263 C76.7293712,21.2144788 77.7861879,21.7289474 79.1275523,21.7289474 C80.2250323,21.7289474 81.1548278,21.3859683 81.9169667,20.7 C82.6791056,20.0140317 83.1922714,19.0456203 83.4564795,17.7947368 L83.7003627,17.5526316 L83.9442459,17.5526316 C84.1271593,17.5526316 84.2846656,17.6333325 84.4167697,17.7947368 C84.5488738,17.9561412 84.6149248,18.1780688 84.6149248,18.4605263 C84.4726589,19.1464947 84.2186164,19.7668832 83.8527897,20.3217105 C83.4869631,20.8765379 83.0449292,21.3506559 82.5266747,21.7440789 C82.0084203,22.137502 81.4190417,22.4451743 80.7585214,22.6671053 C80.098001,22.8890362 79.4019246,23 78.6702713,23 C76.3736928,23 74.5801529,22.3594362 73.2895977,21.0782895 C71.9990426,19.7971427 71.3537747,18.0166781 71.3537747,15.7368421 L71.3537747,15.4342105 C71.3537747,14.3447314 71.5366853,13.3359696 71.9025119,12.4078947 C72.2683386,11.4798199 72.7713427,10.6778543 73.4115393,10.0019737 C74.051736,9.32609311 74.8240251,8.80153695 75.7284299,8.42828947 C76.6328347,8.05504199 77.6134387,7.86842105 78.6702713,7.86842105 C79.5441905,7.86842105 80.3418839,8.02982295 81.0633754,8.35263158 C81.7848669,8.67544021 82.4098114,9.12938304 82.9382277,9.71447368 C83.4666439,10.2995643 83.8832736,11.0006538 84.1881292,11.8177632 C84.4929847,12.6348725 84.6555719,13.5377144 84.6758956,14.5263158 L84.5234686,14.6776316 Z M81.3225013,13.4671053 C81.3225013,11.9539398 81.0582971,10.7938637 80.5298809,9.98684211 C80.0014646,9.17982053 79.2799839,8.77631579 78.3654173,8.77631579 C77.4508506,8.77631579 76.6785615,9.21008338 76.0485267,10.0776316 C75.4184919,10.9451798 75.0221856,12.1758692 74.859596,13.7697368 L81.0176473,13.7697368 L81.3225013,13.4671053 Z M103.184122,22.6973684 L101.812278,22.6973684 L99.434417,22.5460526 L97.087041,22.6973684 L95.7151979,22.6973684 L95.5627709,22.5460526 L95.5627709,22.0921053 L95.7151979,21.9407895 L96.6297599,21.9407895 L97.544322,21.6381579 L97.8491761,21.0328947 L97.8491761,11.0460526 C97.3817309,9.97674904 96.6196034,9.44210526 95.5627709,9.44210526 C94.7091753,9.44210526 93.9572096,9.74977762 93.3068511,10.3651316 C92.6564926,10.9804855 92.1382459,11.8631521 91.7520955,13.0131579 L91.7520955,21.0328947 L92.0569496,21.6381579 L92.9715116,21.9407895 L93.8860737,21.9407895 L94.0385007,22.0921053 L94.0385007,22.5460526 L93.8860737,22.6973684 L92.5142306,22.6973684 L90.1668546,22.5460526 L87.7889932,22.6973684 L86.4171501,22.6973684 L86.2647231,22.5460526 L86.2647231,22.0921053 L86.4171501,21.9407895 L87.3317122,21.9407895 L88.2462742,21.6381579 L88.5511283,21.0328947 L88.5511283,9.83552632 L88.2462742,9.23026316 L87.3317122,8.92763158 L86.5695771,8.92763158 L86.4171501,8.77631579 L86.4171501,8.32236842 L86.5695771,8.17105263 L91.5996685,8.17105263 L91.7520955,8.32236842 L91.7520955,11.1973684 C92.951194,8.97805908 94.6278744,7.86842105 96.782187,7.86842105 C97.7780484,7.86842105 98.6417929,8.14078675 99.3734462,8.68552632 C100.1051,9.23026588 100.663993,10.0171001 101.050143,11.0460526 L101.050143,21.0328947 L101.354997,21.6381579 L102.269559,21.9407895 L103.184122,21.9407895 L103.336549,22.0921053 L103.336549,22.5460526 L103.184122,22.6973684 Z M117.485362,18.3092105 C117.180506,19.7618494 116.504753,20.9067941 115.458083,21.7440789 C114.411412,22.5813638 113.156442,23 111.693135,23 C109.477852,23 107.730039,22.3594362 106.449646,21.0782895 C105.169253,19.7971427 104.529066,18.0166781 104.529066,15.7368421 L104.529066,15.4342105 C104.529066,14.3447314 104.717057,13.3359696 105.093046,12.4078947 C105.469034,11.4798199 105.997443,10.6778543 106.678287,10.0019737 C107.359131,9.32609311 108.166986,8.80153695 109.101876,8.42828947 C110.036766,8.05504199 111.052936,7.86842105 112.150416,7.86842105 C112.88207,7.86842105 113.552742,7.95920962 114.162453,8.14078947 C114.772164,8.32236933 115.300572,8.5796036 115.747694,8.9125 C116.194815,9.2453964 116.545394,9.6287259 116.79944,10.0625 C117.053487,10.4962741 117.180508,10.975436 117.180508,11.5 C117.180508,12.024564 116.992516,12.4835507 116.616528,12.8769737 C116.240539,13.2703967 115.76802,13.4671053 115.198957,13.4671053 C114.67054,13.4671053 114.223426,13.3208348 113.857599,13.0282895 C113.491772,12.7357442 113.258053,12.3271956 113.156435,11.8026316 L113.156435,11.6513158 L114.741676,10.0776316 L114.741676,9.92631579 C114.192936,9.15964529 113.329191,8.77631579 112.150416,8.77631579 C111.561029,8.77631579 111.017378,8.92763007 110.519447,9.23026316 C110.021517,9.53289625 109.589644,9.95657622 109.223818,10.5013158 C108.857991,11.0460554 108.568383,11.7118382 108.354984,12.4986842 C108.141585,13.2855302 108.034887,14.1631531 108.034887,15.1315789 C108.034887,17.2701861 108.400708,18.9043803 109.132362,20.0342105 C109.864015,21.1640407 110.920832,21.7289474 112.302843,21.7289474 C113.38,21.7289474 114.274229,21.3607493 114.985559,20.6243421 C115.696888,19.8879349 116.154165,18.8842169 116.357402,17.6131579 L116.5708,17.4013158 L116.723227,17.4013158 C116.926464,17.4013158 117.104294,17.4870605 117.256721,17.6585526 C117.409149,17.8300447 117.485362,18.0469285 117.485362,18.3092105 L117.485362,18.3092105 Z M131.847573,14.6776316 L122.275157,14.6776316 L122.12273,14.9802632 L122.12273,15.8881579 C122.12273,17.724132 122.508874,19.1565738 123.281175,20.1855263 C124.053476,21.2144788 125.110292,21.7289474 126.451657,21.7289474 C127.549137,21.7289474 128.478932,21.3859683 129.241071,20.7 C130.00321,20.0140317 130.516376,19.0456203 130.780584,17.7947368 L131.024467,17.5526316 L131.26835,17.5526316 C131.451264,17.5526316 131.60877,17.6333325 131.740874,17.7947368 C131.872978,17.9561412 131.939029,18.1780688 131.939029,18.4605263 C131.796763,19.1464947 131.542721,19.7668832 131.176894,20.3217105 C130.811067,20.8765379 130.369034,21.3506559 129.850779,21.7440789 C129.332525,22.137502 128.743146,22.4451743 128.082626,22.6671053 C127.422105,22.8890362 126.726029,23 125.994376,23 C123.697797,23 121.904257,22.3594362 120.613702,21.0782895 C119.323147,19.7971427 118.677879,18.0166781 118.677879,15.7368421 L118.677879,15.4342105 C118.677879,14.3447314 118.86079,13.3359696 119.226616,12.4078947 C119.592443,11.4798199 120.095447,10.6778543 120.735644,10.0019737 C121.37584,9.32609311 122.14813,8.80153695 123.052534,8.42828947 C123.956939,8.05504199 124.937543,7.86842105 125.994376,7.86842105 C126.868295,7.86842105 127.665988,8.02982295 128.38748,8.35263158 C129.108971,8.67544021 129.733916,9.12938304 130.262332,9.71447368 C130.790748,10.2995643 131.207378,11.0006538 131.512234,11.8177632 C131.817089,12.6348725 131.979676,13.5377144 132,14.5263158 L131.847573,14.6776316 Z M128.646606,13.4671053 C128.646606,11.9539398 128.382402,10.7938637 127.853985,9.98684211 C127.325569,9.17982053 126.604088,8.77631579 125.689522,8.77631579 C124.774955,8.77631579 124.002666,9.21008338 123.372631,10.0776316 C122.742596,10.9451798 122.34629,12.1758692 122.1837,13.7697368 L128.341752,13.7697368 L128.646606,13.4671053 Z" id="Reference" fill="#3C5B74"></path>
            <path d="M145.70097,4.28239724 C145.70097,4.66305668 145.572039,4.98423326 145.314173,5.24593662 C145.056307,5.50763998 144.71863,5.6384897 144.301133,5.6384897 C144.030988,5.6384897 143.779265,5.57306484 143.545958,5.44221316 C143.31265,5.31136148 143.146882,5.1150869 143.048647,4.85338354 L141.13308,5.78123627 L142.127701,7.74400168 C142.324171,7.67262803 142.532916,7.63694174 142.753944,7.63694174 C143.122324,7.63694174 143.447722,7.76184375 143.730147,8.0116515 C144.012571,8.26145926 144.153782,8.58858355 144.153782,8.9930342 C144.153782,9.37369364 144.024851,9.69487022 143.766985,9.95657358 C143.509118,10.2182769 143.171442,10.3491267 142.753944,10.3491267 C142.385564,10.3491267 142.060167,10.2182769 141.777742,9.95657358 C141.495317,9.69487022 141.354107,9.37369364 141.354107,8.9930342 C141.354107,8.77891327 141.397084,8.58858641 141.483039,8.42204791 C141.568995,8.2555094 141.661088,8.12465968 141.759323,8.02949483 L140.175297,6.49496915 L138.59127,8.02949483 C138.689505,8.12465968 138.781598,8.2555094 138.867554,8.42204791 C138.953509,8.58858641 138.996486,8.77891327 138.996486,8.9930342 C138.996486,9.37369364 138.855276,9.69487022 138.572851,9.95657358 C138.290426,10.2182769 137.965029,10.3491267 137.596649,10.3491267 C137.179151,10.3491267 136.841475,10.2182769 136.583609,9.95657358 C136.325742,9.69487022 136.196811,9.37369364 136.196811,8.9930342 C136.196811,8.58858355 136.338022,8.26145926 136.620446,8.0116515 C136.902871,7.76184375 137.228269,7.63694174 137.596649,7.63694174 C137.842235,7.63694174 138.050981,7.67262803 138.222892,7.74400168 L139.217513,5.78123627 L137.301946,4.85338354 C137.203711,5.1150869 137.037943,5.31136148 136.804635,5.44221316 C136.571328,5.57306484 136.319605,5.6384897 136.04946,5.6384897 C135.631963,5.6384897 135.294286,5.50763998 135.03642,5.24593662 C134.778554,4.98423326 134.649623,4.66305668 134.649623,4.28239724 C134.649623,3.87794659 134.778554,3.55677001 135.03642,3.31885786 C135.294286,3.08094571 135.631963,2.96199142 136.04946,2.96199142 C136.466958,2.96199142 136.798495,3.08094571 137.044081,3.31885786 C137.289668,3.55677001 137.41246,3.87794659 137.41246,4.28239724 L137.41246,4.46083046 L139.585891,4.74632361 L139.917432,2.67649828 C139.156113,2.48616856 138.775459,2.03414226 138.775459,1.32040582 C138.775459,0.915955165 138.90439,0.594778584 139.162256,0.356866437 C139.420122,0.118954289 139.757799,0 140.175297,0 C140.592794,0 140.930471,0.118954289 141.188337,0.356866437 C141.446203,0.594778584 141.575134,0.915955165 141.575134,1.32040582 C141.575134,2.03414226 141.19448,2.48616856 140.433161,2.67649828 L140.764702,4.74632361 L142.938133,4.46083046 L142.938133,4.28239724 C142.938133,3.87794659 143.060925,3.55677001 143.306512,3.31885786 C143.552098,3.08094571 143.883636,2.96199142 144.301133,2.96199142 C144.71863,2.96199142 145.056307,3.08094571 145.314173,3.31885786 C145.572039,3.55677001 145.70097,3.87794659 145.70097,4.28239724 L145.70097,4.28239724 Z" id="*" fill="#92C93B"></path>
        </g>
    </g>
</svg>